# xmcd
#
# Track frame offsets:
#	150
#	9517
#	23962
#	43477
#	58185
#	70972
#	89332
#	109882
#	122310
#	143380
#	163525
#	186927
#	198530
#	219062
#	242677
#	263012
#	277320
#	299075
#
# Disc length: 4206 seconds
#
# Revision: 2
# Processed by: cddbd v1.5.2PL0 Copyright (c) Steve Scherf et al.
# Submitted via: audiograbber 1.83.01
#
DISCID=11106c12
DTITLE=AFI - I Heard A Voice - Live From Long Beach Arena
DYEAR=1900
DGENRE=
TTITLE0=Prelude 12/21
TTITLE1=Girl's Not Grey
TTITLE2=The Leaving Song Pt. II
TTITLE3=Summer Shudder
TTITLE4=Kill Caustic
TTITLE5=The Days of the Phoenix
TTITLE6=Endlessly, She Said
TTITLE7=A Single Second
TTITLE8=The Missing Frame
TTITLE9=Bleed Black
TTITLE10=Silver and Cold
TTITLE11=Dancing Through Sunday
TTITLE12=This Time Imperfect
TTITLE13=Death of Seasons
TTITLE14=Totalimmortal
TTITLE15=Love Like Winter
TTITLE16=God Called In Sick Today
TTITLE17=Miss Murder
EXTD=
EXTT0=
EXTT1=
EXTT2=
EXTT3=
EXTT4=
EXTT5=
EXTT6=
EXTT7=
EXTT8=
EXTT9=
EXTT10=
EXTT11=
EXTT12=
EXTT13=
EXTT14=
EXTT15=
EXTT16=
EXTT17=
PLAYORDER=
